<?xml version='1.0' encoding='iso-8859-1'?>
<svg version="1.1" xmlns="http://www.w3.org/2000/svg" viewBox="0 0 463.001 463.001" xmlns:xlink="http://www.w3.org/1999/xlink" enable-background="new 0 0 463.001 463.001">
  <g>
    <g>
      <g>
        <path d="m441.045,308.903c-3.285-8.994-10.277-15.956-19.184-19.102-8.9-3.145-18.637-2.163-26.706,2.69l-78.169,46.902-10.752,4.607h-56.404c-0.691,0-1.077-0.386-1.278-0.71-0.202-0.324-0.379-0.841-0.073-1.46 0.174-0.354 0.474-0.622 0.845-0.754l42.802-15.295c16.563-5.566 26.054-22.511 21.614-38.615-2.33-8.452-7.861-15.368-15.573-19.475-7.593-4.044-16.624-4.798-24.766-2.071l-44.166,14.719-115.97,7.733c-7.614,0.508-14.778,3.759-20.173,9.154l-63.084,63.083c-12.102,12.102-13.223,31.298-2.553,43.701 2.82,3.279 14.975,14.926 33.195,32.322 10.618,10.137 20.646,19.711 25.407,24.472 1.458,1.458 3.378,2.197 5.306,2.197 1.698,0 3.403-0.575 4.8-1.738l34.649-28.875c7.264-6.054 16.472-9.387 25.927-9.387h118.623c4.294,0 8.473-0.857 12.42-2.549l55.987-23.995c0.156-0.067 0.31-0.139 0.46-0.216l2.842-1.453c0.151-0.077 0.3-0.159 0.444-0.247l79.285-47.571c13.379-8.028 19.369-24.037 14.245-38.067zm-21.962,25.204l-79.067,47.44-2.39,1.222-55.753,23.895c-2.069,0.887-4.261,1.336-6.512,1.336h-118.621c-12.958,0-25.576,4.568-35.53,12.864l-29.436,24.53c-5.38-5.224-12.912-12.415-20.765-19.912-13.202-12.604-29.632-28.289-32.183-31.255-5.488-6.379-4.686-16.837 1.789-23.312l63.084-63.084c2.824-2.825 6.576-4.527 10.563-4.793l116.93-7.797c0.638-0.042 1.267-0.166 1.872-0.368l45.088-15.027c1.724-0.577 3.49-0.863 5.247-0.863 2.656,0 5.289,0.654 7.716,1.946 4.04,2.152 6.939,5.782 8.163,10.223 2.288,8.298-3.086,17.461-11.979,20.425-0.051,0.017-0.102,0.035-0.151,0.053l-42.872,15.32c-4.063,1.452-7.35,4.384-9.256,8.256-2.534,5.152-2.236,11.137 0.798,16.011s8.272,7.783 14.013,7.783h57.943c1.016,0 2.021-0.206 2.954-0.606l12.635-5.414c0.312-0.133 0.614-0.288 0.904-0.462l78.612-47.168c4.224-2.542 9.319-3.052 13.986-1.405 4.737,1.674 8.321,5.262 10.09,10.105 2.62,7.17-0.765,15.793-7.872,20.057z"/>
        <path d="m291.642,239c65.893,0 119.5-53.607 119.5-119.5s-53.607-119.5-119.5-119.5-119.5,53.607-119.5,119.5 53.607,119.5 119.5,119.5zm0-224c57.621,0 104.5,46.878 104.5,104.5s-46.879,104.5-104.5,104.5-104.5-46.878-104.5-104.5 46.879-104.5 104.5-104.5z"/>
        <path d="m251.142,147.5c0-4.142-3.357-7.5-7.5-7.5s-7.5,3.358-7.5,7.5c0,14.501 12.944,26.706 32,32.269v3.731c0,4.142 3.357,7.5 7.5,7.5s7.5-3.358 7.5-7.5v-0.897c2.766,0.261 5.603,0.397 8.5,0.397s5.734-0.136 8.5-0.397v0.897c0,4.142 3.357,7.5 7.5,7.5s7.5-3.358 7.5-7.5v-3.731c19.056-5.563 32-17.767 32-32.269s-12.944-26.706-32-32.269v-40.224c10.58,4.023 17,10.47 17,16.493 0,4.142 3.357,7.5 7.5,7.5s7.5-3.358 7.5-7.5c0-14.501-12.944-26.706-32-32.269v-3.731c0-4.142-3.357-7.5-7.5-7.5s-7.5,3.358-7.5,7.5v0.897c-2.766-0.261-5.603-0.397-8.5-0.397s-5.734,0.136-8.5,0.397v-0.897c0-4.142-3.357-7.5-7.5-7.5s-7.5,3.358-7.5,7.5v3.731c-19.056,5.563-32,17.767-32,32.269s12.944,26.706 32,32.269v40.224c-10.58-4.023-17-10.471-17-16.493zm64-16.493c10.58,4.023 17,10.47 17,16.493s-6.42,12.47-17,16.493v-32.986zm-32-59.533c2.711-0.308 5.55-0.474 8.5-0.474s5.789,0.166 8.5,0.474v40.923c-2.766-0.261-5.603-0.397-8.5-0.397-2.95,0-5.789-0.166-8.5-0.474v-40.052zm0,55.129c2.766,0.261 5.603,0.397 8.5,0.397 2.95,0 5.789,0.166 8.5,0.474v40.052c-2.711,0.308-5.55,0.474-8.5,0.474s-5.789-0.166-8.5-0.474v-40.923zm-32-35.103c0-6.022 6.42-12.47 17-16.493v32.985c-10.58-4.022-17-10.47-17-16.492z"/>
      </g>
    </g>
  </g>
</svg>
